<svg width="1600" height="1000" viewBox="0 0 1600 1000" fill="none" xmlns="http://www.w3.org/2000/svg">
  <rect width="1600" height="1000" fill="#111827"/>
  <path d="M0 640C242 532 444 592 704 506C1012 404 1242 214 1600 286V1000H0V640Z" fill="#172033"/>
  <path d="M0 724C268 630 540 674 824 594C1112 512 1328 402 1600 462V1000H0V724Z" fill="#201b2b"/>
  <circle cx="210" cy="168" r="360" fill="#c2410c" opacity="0.24"/>
  <circle cx="1298" cy="774" r="420" fill="#0d9488" opacity="0.18"/>

  <g opacity="0.42">
    <path d="M0 142H1600" stroke="#f8ead5" stroke-opacity="0.08"/>
    <path d="M0 284H1600" stroke="#f8ead5" stroke-opacity="0.06"/>
    <path d="M0 426H1600" stroke="#f8ead5" stroke-opacity="0.05"/>
    <path d="M0 568H1600" stroke="#f8ead5" stroke-opacity="0.05"/>
  </g>

  <rect x="114" y="128" width="456" height="494" rx="34" fill="#1f2937" stroke="#f8ead5" stroke-opacity="0.15" stroke-width="3"/>
  <rect x="154" y="170" width="376" height="188" rx="24" fill="#2c1d1b" stroke="#f97316" stroke-opacity="0.2" stroke-width="2"/>
  <path d="M180 310C232 264 296 278 346 238C394 200 452 194 512 216V358H180V310Z" fill="#7c2d12" opacity="0.7"/>
  <circle cx="246" cy="246" r="28" fill="#f59e0b" opacity="0.85"/>
  <path d="M198 398H488" stroke="#f8ead5" stroke-opacity="0.28" stroke-width="18" stroke-linecap="round"/>
  <path d="M198 452H430" stroke="#f8ead5" stroke-opacity="0.2" stroke-width="18" stroke-linecap="round"/>
  <path d="M198 506H466" stroke="#f8ead5" stroke-opacity="0.14" stroke-width="18" stroke-linecap="round"/>
  <rect x="206" y="550" width="134" height="40" rx="20" fill="#0d9488" opacity="0.75"/>
  <rect x="358" y="550" width="96" height="40" rx="20" fill="#f8ead5" opacity="0.14"/>

  <ellipse cx="928" cy="690" rx="468" ry="150" fill="#0b1020" opacity="0.52"/>
  <ellipse cx="928" cy="626" rx="380" ry="206" fill="#f8ead5"/>
  <ellipse cx="928" cy="626" rx="284" ry="148" fill="#e7c99b"/>
  <ellipse cx="928" cy="626" rx="200" ry="104" fill="#9a3412" opacity="0.9"/>
  <path d="M780 610C850 552 952 532 1054 566C1114 586 1158 620 1174 660C1118 694 1028 720 926 710C854 702 804 668 780 610Z" fill="#7c2d12"/>
  <path d="M832 592C898 564 996 566 1084 596" stroke="#facc15" stroke-opacity="0.78" stroke-width="18" stroke-linecap="round"/>
  <path d="M854 652C928 682 1036 672 1106 634" stroke="#166534" stroke-opacity="0.86" stroke-width="15" stroke-linecap="round"/>
  <circle cx="1114" cy="578" r="9" fill="#111827"/>
  <path d="M1114 578L1176 536" stroke="#111827" stroke-width="7" stroke-linecap="round"/>

  <path d="M1218 342L1050 776" stroke="#e7e5e4" stroke-width="17" stroke-linecap="round"/>
  <path d="M1270 366L1086 784" stroke="#e7e5e4" stroke-width="17" stroke-linecap="round"/>
  <circle cx="1218" cy="342" r="18" fill="#f8ead5" opacity="0.85"/>
  <circle cx="1270" cy="366" r="18" fill="#f8ead5" opacity="0.85"/>

  <rect x="1224" y="578" width="254" height="150" rx="30" fill="#1f2937" stroke="#f8ead5" stroke-opacity="0.16" stroke-width="2"/>
  <circle cx="1292" cy="654" r="32" fill="#c2410c"/>
  <path d="M1280 656L1290 668L1310 636" stroke="#fff7ed" stroke-width="9" stroke-linecap="round" stroke-linejoin="round"/>
  <path d="M1352 630H1442" stroke="#f8ead5" stroke-opacity="0.36" stroke-width="11" stroke-linecap="round"/>
  <path d="M1352 674H1418" stroke="#f8ead5" stroke-opacity="0.22" stroke-width="11" stroke-linecap="round"/>

  <rect x="1292" y="156" width="178" height="244" rx="24" fill="#0f172a" stroke="#0d9488" stroke-opacity="0.34" stroke-width="3"/>
  <rect x="1324" y="188" width="114" height="58" rx="14" fill="#f8ead5" opacity="0.92"/>
  <path d="M1352 229H1412" stroke="#111827" stroke-width="13" stroke-linecap="round"/>
  <path d="M1382 202V236" stroke="#111827" stroke-width="13" stroke-linecap="round"/>
  <path d="M1324 292H1438" stroke="#f8ead5" stroke-opacity="0.26" stroke-width="12" stroke-linecap="round"/>
  <path d="M1324 334H1406" stroke="#f8ead5" stroke-opacity="0.18" stroke-width="12" stroke-linecap="round"/>

  <g opacity="0.62">
    <rect x="658" y="210" width="176" height="210" rx="44" fill="#0d9488"/>
    <circle cx="746" cy="288" r="42" fill="#d1fae5"/>
    <path d="M704 382C722 346 770 346 790 382" stroke="#d1fae5" stroke-width="18" stroke-linecap="round"/>
  </g>
  <g opacity="0.46">
    <rect x="874" y="180" width="196" height="238" rx="46" fill="#334155"/>
    <circle cx="972" cy="266" r="44" fill="#e2e8f0"/>
    <path d="M922 378C944 334 1000 334 1022 378" stroke="#e2e8f0" stroke-width="18" stroke-linecap="round"/>
  </g>
</svg>
